<?xml version="1.0" encoding="UTF-8"?>
<svg id="_レイヤー_1" data-name="レイヤー 1" xmlns="http://www.w3.org/2000/svg" viewBox="0 0 48 48">
  <defs>
    <style>
      .cls-1 {
        fill: #3c43e6;
      }

      .cls-2 {
        fill: #f9f1ef;
      }
    </style>
  </defs>
  <g>
    <path class="cls-2" d="M24,47.25C11.18,47.25.75,36.82.75,24S11.18.75,24,.75s23.25,10.43,23.25,23.25-10.43,23.25-23.25,23.25Z"/>
    <path class="cls-1" d="M24,1.5c12.41,0,22.5,10.09,22.5,22.5s-10.09,22.5-22.5,22.5S1.5,36.41,1.5,24,11.59,1.5,24,1.5M24,0C10.75,0,0,10.75,0,24s10.75,24,24,24,24-10.75,24-24S37.26,0,24,0h0Z"/>
  </g>
  <g>
    <path class="cls-1" d="M17.33,13.99c.09,0,.17.07.17.17v3.5c0,.92-.58,1.92-1.58,2.51-.1.06-.16.17-.16.29l.33,12.79c0,.12-.1.23-.22.23h-4.71c-.14,0-.24-.12-.22-.26l2.05-12.29c.02-.13-.08-.26-.22-.26h-1.96c-.12,0-.22-.1-.22-.22v-3.38c0-.12.1-.22.22-.22h2.7c1.05,0,2.43-.8,2.51-2.7,0-.09.08-.16.17-.16h1.14Z"/>
    <path class="cls-1" d="M27.85,22.5h2.43c.09,0,.14-.1.09-.18l-3.29-4.35c-.06-.08-.16-.13-.26-.13h-.81c-.08,0-.13.08-.1.15l.13.33c.05.14.01.29-.1.38-1.04.79-2.49.52-2.83-.07-.45-.78.45-1.56,2.51-1.56h4.17c.09,0,.17-.07.17-.17v-2.08c0-.09-.07-.17-.17-.17h-11.02c-.12,0-.22.1-.22.22v1.93c0,.15.1.28.24.32,1.86.49-.08,1.41-.24,2.69-.08.66.34,1.38,1.77,1.59.68.1,1.36.15,2.02.15.12,0,.22.1.22.22v1.08c0,.12.1.22.22.22h2c.12,0,.22-.1.22-.22v-1.32c0-.15.1-.29.25-.32.55-.13,1.04-.3,1.46-.49.12-.05.25,0,.3.12l.54,1.43c.05.13.17.21.31.21Z"/>
    <path class="cls-1" d="M24.99,28.42v-1.09c0-.09.07-.17.17-.17h4.15c.12,0,.22-.1.22-.22v-1.3c0-.12-.1-.22-.22-.22h-4.15c-.09,0-.17-.07-.17-.17v-1.44c0-.09-.07-.17-.17-.17h-2.11c-.09,0-.17.07-.17.17v1.44c0,.09-.07.17-.17.17h-2.77c-.12,0-.22.1-.22.22v1.3c0,.12.1.22.22.22h2.77c.09,0,.17.07.17.17v1.09c0,.09-.07.17-.17.17h-4.13c-.12,0-.22.1-.22.22v3.53c0,.14.13.24.26.22l12.1-2.39c.12-.02.2-.12.2-.24v-1.08c0-.14-.11-.25-.25-.25h-5.19c-.09,0-.17-.07-.17-.17Z"/>
    <g>
      <path class="cls-1" d="M33.62,19.49h-2.22c-.09,0-.17.07-.17.17v7.87c0,.12.1.22.22.22h2.11c.12,0,.22-.1.22-.22v-7.87c0-.09-.07-.17-.17-.17Z"/>
      <path class="cls-1" d="M37.37,14.31h-2.34c-.12,0-.22.1-.22.22v14.82c0,.51-.19.51-.29,0l-.26.04.54,3.54c.01.11.11.2.22.2h.85c.96,0,1.73-.78,1.73-1.73V14.53c0-.12-.11-.22-.23-.22Z"/>
      <rect class="cls-1" x="31.24" y="17.78" width="2.55" height="1.22" rx=".17" ry=".17"/>
      <rect class="cls-1" x="31.24" y="16.11" width="2.55" height="1.22" rx=".17" ry=".17"/>
    </g>
  </g>
</svg>